<svg width="608" height="26" viewBox="0 0 608 26" fill="none" xmlns="http://www.w3.org/2000/svg">
<path d="M8.05861 5.12H0.218613V0.499998H21.5686V5.12H13.7286V25H8.05861V5.12ZM47.0894 0.499998V25H41.4194V14.955H30.2894V25H24.6194V0.499998H30.2894V10.16H41.4194V0.499998H47.0894ZM71.856 20.45V25H52.886V0.499998H71.401V5.05H58.521V10.37H69.896V14.78H58.521V20.45H71.856ZM108.75 0.499998V25H103.08V14.955H91.9495V25H86.2795V0.499998H91.9495V10.16H103.08V0.499998H108.75ZM130.681 19.75H119.306L117.136 25H111.326L122.246 0.499998H127.846L138.801 25H132.851L130.681 19.75ZM128.896 15.445L125.011 6.065L121.126 15.445H128.896ZM163.638 25L163.603 10.3L156.393 22.41H153.838L146.663 10.615V25H141.343V0.499998H146.033L155.203 15.725L164.233 0.499998H168.888L168.958 25H163.638ZM184.683 0.499998H190.353V25H184.683V0.499998ZM204.217 25.42C202.281 25.42 200.402 25.1633 198.582 24.65C196.786 24.1133 195.339 23.425 194.242 22.585L196.167 18.315C197.217 19.085 198.466 19.7033 199.912 20.17C201.359 20.6367 202.806 20.87 204.252 20.87C205.862 20.87 207.052 20.6367 207.822 20.17C208.592 19.68 208.977 19.0383 208.977 18.245C208.977 17.6617 208.744 17.1833 208.277 16.81C207.834 16.4133 207.251 16.0983 206.527 15.865C205.827 15.6317 204.871 15.375 203.657 15.095C201.791 14.6517 200.262 14.2083 199.072 13.765C197.882 13.3217 196.856 12.61 195.992 11.63C195.152 10.65 194.732 9.34333 194.732 7.71C194.732 6.28667 195.117 5.00333 195.887 3.86C196.657 2.69333 197.812 1.77167 199.352 1.095C200.916 0.418333 202.817 0.0799996 205.057 0.0799996C206.621 0.0799996 208.149 0.266666 209.642 0.639999C211.136 1.01333 212.442 1.55 213.562 2.25L211.812 6.555C209.549 5.27167 207.286 4.63 205.022 4.63C203.436 4.63 202.257 4.88667 201.487 5.4C200.741 5.91333 200.367 6.59 200.367 7.43C200.367 8.27 200.799 8.9 201.662 9.32C202.549 9.71667 203.891 10.1133 205.687 10.51C207.554 10.9533 209.082 11.3967 210.272 11.84C211.462 12.2833 212.477 12.9833 213.317 13.94C214.181 14.8967 214.612 16.1917 214.612 17.825C214.612 19.225 214.216 20.5083 213.422 21.675C212.652 22.8183 211.486 23.7283 209.922 24.405C208.359 25.0817 206.457 25.42 204.217 25.42Z" fill="white"/>
<path d="M265.429 0.499998L257.414 25H251.324L245.934 8.41L240.369 25H234.314L226.264 0.499998H232.144L237.674 17.72L243.449 0.499998H248.699L254.299 17.86L260.004 0.499998H265.429ZM280.151 25.42C277.608 25.42 275.31 24.8717 273.256 23.775C271.226 22.6783 269.628 21.1733 268.461 19.26C267.318 17.3233 266.746 15.1533 266.746 12.75C266.746 10.3467 267.318 8.18833 268.461 6.275C269.628 4.33833 271.226 2.82167 273.256 1.725C275.31 0.628333 277.608 0.0799996 280.151 0.0799996C282.695 0.0799996 284.981 0.628333 287.011 1.725C289.041 2.82167 290.64 4.33833 291.806 6.275C292.973 8.18833 293.556 10.3467 293.556 12.75C293.556 15.1533 292.973 17.3233 291.806 19.26C290.64 21.1733 289.041 22.6783 287.011 23.775C284.981 24.8717 282.695 25.42 280.151 25.42ZM280.151 20.59C281.598 20.59 282.905 20.2633 284.071 19.61C285.238 18.9333 286.148 18 286.801 16.81C287.478 15.62 287.816 14.2667 287.816 12.75C287.816 11.2333 287.478 9.88 286.801 8.69C286.148 7.5 285.238 6.57833 284.071 5.925C282.905 5.24833 281.598 4.91 280.151 4.91C278.705 4.91 277.398 5.24833 276.231 5.925C275.065 6.57833 274.143 7.5 273.466 8.69C272.813 9.88 272.486 11.2333 272.486 12.75C272.486 14.2667 272.813 15.62 273.466 16.81C274.143 18 275.065 18.9333 276.231 19.61C277.398 20.2633 278.705 20.59 280.151 20.59ZM313.428 25L308.703 18.175H308.423H303.488V25H297.818V0.499998H308.423C310.593 0.499998 312.471 0.861665 314.058 1.585C315.668 2.30833 316.904 3.335 317.768 4.665C318.631 5.995 319.063 7.57 319.063 9.39C319.063 11.21 318.619 12.785 317.733 14.115C316.869 15.4217 315.633 16.425 314.023 17.125L319.518 25H313.428ZM313.323 9.39C313.323 8.01333 312.879 6.96333 311.993 6.24C311.106 5.49333 309.811 5.12 308.108 5.12H303.488V13.66H308.108C309.811 13.66 311.106 13.2867 311.993 12.54C312.879 11.7933 313.323 10.7433 313.323 9.39ZM323.555 0.499998H334.685C337.345 0.499998 339.69 1.01333 341.72 2.04C343.773 3.04333 345.36 4.46667 346.48 6.31C347.623 8.15333 348.195 10.3 348.195 12.75C348.195 15.2 347.623 17.3467 346.48 19.19C345.36 21.0333 343.773 22.4683 341.72 23.495C339.69 24.4983 337.345 25 334.685 25H323.555V0.499998ZM334.405 20.345C336.855 20.345 338.803 19.6683 340.25 18.315C341.72 16.9383 342.455 15.0833 342.455 12.75C342.455 10.4167 341.72 8.57333 340.25 7.22C338.803 5.84333 336.855 5.155 334.405 5.155H329.225V20.345H334.405ZM363.076 0.499998C365.246 0.499998 367.124 0.861665 368.711 1.585C370.321 2.30833 371.558 3.335 372.421 4.665C373.284 5.995 373.716 7.57 373.716 9.39C373.716 11.1867 373.284 12.7617 372.421 14.115C371.558 15.445 370.321 16.4717 368.711 17.195C367.124 17.895 365.246 18.245 363.076 18.245H358.141V25H352.471V0.499998H363.076ZM362.761 13.625C364.464 13.625 365.759 13.2633 366.646 12.54C367.533 11.7933 367.976 10.7433 367.976 9.39C367.976 8.01333 367.533 6.96333 366.646 6.24C365.759 5.49333 364.464 5.12 362.761 5.12H358.141V13.625H362.761ZM393.374 25L388.649 18.175H388.369H383.434V25H377.764V0.499998H388.369C390.539 0.499998 392.417 0.861665 394.004 1.585C395.614 2.30833 396.851 3.335 397.714 4.665C398.577 5.995 399.009 7.57 399.009 9.39C399.009 11.21 398.566 12.785 397.679 14.115C396.816 15.4217 395.579 16.425 393.969 17.125L399.464 25H393.374ZM393.269 9.39C393.269 8.01333 392.826 6.96333 391.939 6.24C391.052 5.49333 389.757 5.12 388.054 5.12H383.434V13.66H388.054C389.757 13.66 391.052 13.2867 391.939 12.54C392.826 11.7933 393.269 10.7433 393.269 9.39ZM422.471 20.45V25H403.501V0.499998H422.016V5.05H409.136V10.37H420.511V14.78H409.136V20.45H422.471ZM435.033 25.42C433.096 25.42 431.218 25.1633 429.398 24.65C427.601 24.1133 426.154 23.425 425.058 22.585L426.983 18.315C428.033 19.085 429.281 19.7033 430.728 20.17C432.174 20.6367 433.621 20.87 435.068 20.87C436.678 20.87 437.868 20.6367 438.638 20.17C439.408 19.68 439.793 19.0383 439.793 18.245C439.793 17.6617 439.559 17.1833 439.093 16.81C438.649 16.4133 438.066 16.0983 437.343 15.865C436.643 15.6317 435.686 15.375 434.473 15.095C432.606 14.6517 431.078 14.2083 429.888 13.765C428.698 13.3217 427.671 12.61 426.808 11.63C425.968 10.65 425.548 9.34333 425.548 7.71C425.548 6.28667 425.933 5.00333 426.703 3.86C427.473 2.69333 428.628 1.77167 430.168 1.095C431.731 0.418333 433.633 0.0799996 435.873 0.0799996C437.436 0.0799996 438.964 0.266666 440.458 0.639999C441.951 1.01333 443.258 1.55 444.378 2.25L442.628 6.555C440.364 5.27167 438.101 4.63 435.838 4.63C434.251 4.63 433.073 4.88667 432.303 5.4C431.556 5.91333 431.183 6.59 431.183 7.43C431.183 8.27 431.614 8.9 432.478 9.32C433.364 9.71667 434.706 10.1133 436.503 10.51C438.369 10.9533 439.898 11.3967 441.088 11.84C442.278 12.2833 443.293 12.9833 444.133 13.94C444.996 14.8967 445.428 16.1917 445.428 17.825C445.428 19.225 445.031 20.5083 444.238 21.675C443.468 22.8183 442.301 23.7283 440.738 24.405C439.174 25.0817 437.273 25.42 435.033 25.42ZM457.352 25.42C455.415 25.42 453.537 25.1633 451.717 24.65C449.92 24.1133 448.474 23.425 447.377 22.585L449.302 18.315C450.352 19.085 451.6 19.7033 453.047 20.17C454.494 20.6367 455.94 20.87 457.387 20.87C458.997 20.87 460.187 20.6367 460.957 20.17C461.727 19.68 462.112 19.0383 462.112 18.245C462.112 17.6617 461.879 17.1833 461.412 16.81C460.969 16.4133 460.385 16.0983 459.662 15.865C458.962 15.6317 458.005 15.375 456.792 15.095C454.925 14.6517 453.397 14.2083 452.207 13.765C451.017 13.3217 449.99 12.61 449.127 11.63C448.287 10.65 447.867 9.34333 447.867 7.71C447.867 6.28667 448.252 5.00333 449.022 3.86C449.792 2.69333 450.947 1.77167 452.487 1.095C454.05 0.418333 455.952 0.0799996 458.192 0.0799996C459.755 0.0799996 461.284 0.266666 462.777 0.639999C464.27 1.01333 465.577 1.55 466.697 2.25L464.947 6.555C462.684 5.27167 460.42 4.63 458.157 4.63C456.57 4.63 455.392 4.88667 454.622 5.4C453.875 5.91333 453.502 6.59 453.502 7.43C453.502 8.27 453.934 8.9 454.797 9.32C455.684 9.71667 457.025 10.1133 458.822 10.51C460.689 10.9533 462.217 11.3967 463.407 11.84C464.597 12.2833 465.612 12.9833 466.452 13.94C467.315 14.8967 467.747 16.1917 467.747 17.825C467.747 19.225 467.35 20.5083 466.557 21.675C465.787 22.8183 464.62 23.7283 463.057 24.405C461.494 25.0817 459.592 25.42 457.352 25.42ZM486.608 5.12H478.768V0.499998H500.118V5.12H492.278V25H486.608V5.12ZM525.639 0.499998V25H519.969V14.955H508.839V25H503.169V0.499998H508.839V10.16H519.969V0.499998H525.639ZM550.406 20.45V25H531.436V0.499998H549.951V5.05H537.071V10.37H548.446V14.78H537.071V20.45H550.406ZM577.212 25L577.177 10.3L569.967 22.41H567.412L560.237 10.615V25H554.917V0.499998H559.607L568.777 15.725L577.807 0.499998H582.462L582.532 25H577.212ZM607.315 20.45V25H588.345V0.499998H606.86V5.05H593.98V10.37H605.355V14.78H593.98V20.45H607.315Z" fill="#18CFAB"/>
</svg>
