<svg width="132" height="25" viewBox="0 0 132 25" fill="none" xmlns="http://www.w3.org/2000/svg">
<path d="M12.032 22.976C11.6053 23.36 11.072 23.6587 10.432 23.872C9.81333 24.064 9.16267 24.16 8.48 24.16C6.90133 24.16 5.68533 23.7333 4.832 22.88C3.97867 22.0267 3.552 20.8213 3.552 19.264V9.088H0.544V7.168H3.552V3.488H5.824V7.168H10.944V9.088H5.824V19.136C5.824 20.1387 6.06933 20.9067 6.56 21.44C7.072 21.952 7.79733 22.208 8.736 22.208C9.20533 22.208 9.65333 22.1333 10.08 21.984C10.528 21.8347 10.912 21.6213 11.232 21.344L12.032 22.976ZM24.744 7.04C26.856 7.04 28.5307 7.65867 29.768 8.896C31.0267 10.112 31.656 11.8933 31.656 14.24V24H29.384V14.464C29.384 12.7147 28.9467 11.3813 28.072 10.464C27.1973 9.54667 25.9493 9.088 24.328 9.088C22.5147 9.088 21.0747 9.632 20.008 10.72C18.9627 11.7867 18.44 13.2693 18.44 15.168V24H16.168V0.255999H18.44V10.112C19.0587 9.13067 19.912 8.37333 21 7.84C22.088 7.30667 23.336 7.04 24.744 7.04ZM52.5428 16.288H38.4628C38.5908 18.0373 39.2628 19.456 40.4788 20.544C41.6948 21.6107 43.2308 22.144 45.0868 22.144C46.1321 22.144 47.0921 21.9627 47.9668 21.6C48.8414 21.216 49.5988 20.6613 50.2388 19.936L51.5188 21.408C50.7721 22.304 49.8334 22.9867 48.7028 23.456C47.5934 23.9253 46.3668 24.16 45.0228 24.16C43.2948 24.16 41.7588 23.7973 40.4148 23.072C39.0921 22.3253 38.0574 21.3013 37.3108 20C36.5641 18.6987 36.1908 17.2267 36.1908 15.584C36.1908 13.9413 36.5428 12.4693 37.2468 11.168C37.9721 9.86667 38.9534 8.85333 40.1908 8.128C41.4494 7.40267 42.8574 7.04 44.4148 7.04C45.9721 7.04 47.3694 7.40267 48.6068 8.128C49.8441 8.85333 50.8148 9.86667 51.5188 11.168C52.2228 12.448 52.5748 13.92 52.5748 15.584L52.5428 16.288ZM44.4148 8.992C42.7934 8.992 41.4281 9.51467 40.3188 10.56C39.2308 11.584 38.6121 12.928 38.4628 14.592H50.3988C50.2494 12.928 49.6201 11.584 48.5108 10.56C47.4228 9.51467 46.0574 8.992 44.4148 8.992Z" fill="white"/>
<path d="M77.2313 1.6V24H72.0473V14.816H61.8713V24H56.6873V1.6H61.8713V10.432H72.0473V1.6H77.2313ZM89.123 6.528C91.7897 6.528 93.8377 7.168 95.267 8.448C96.6963 9.70667 97.411 11.616 97.411 14.176V24H92.739V21.856C91.8003 23.456 90.051 24.256 87.491 24.256C86.1683 24.256 85.0163 24.032 84.035 23.584C83.075 23.136 82.339 22.5173 81.827 21.728C81.315 20.9387 81.059 20.0427 81.059 19.04C81.059 17.44 81.6563 16.1813 82.851 15.264C84.067 14.3467 85.9337 13.888 88.451 13.888H92.419C92.419 12.8 92.0883 11.968 91.427 11.392C90.7657 10.7947 89.7737 10.496 88.451 10.496C87.5337 10.496 86.627 10.6453 85.731 10.944C84.8563 11.2213 84.1097 11.6053 83.491 12.096L81.699 8.608C82.6377 7.94667 83.7577 7.43467 85.059 7.072C86.3817 6.70933 87.7363 6.528 89.123 6.528ZM88.739 20.896C89.5923 20.896 90.3497 20.704 91.011 20.32C91.6723 19.9147 92.1417 19.328 92.419 18.56V16.8H88.995C86.947 16.8 85.923 17.472 85.923 18.816C85.923 19.456 86.1683 19.968 86.659 20.352C87.171 20.7147 87.8643 20.896 88.739 20.896ZM123.977 6.528C126.132 6.528 127.838 7.168 129.097 8.448C130.377 9.70667 131.017 11.6053 131.017 14.144V24H126.025V14.912C126.025 13.5467 125.737 12.5333 125.161 11.872C124.606 11.1893 123.806 10.848 122.761 10.848C121.588 10.848 120.66 11.232 119.977 12C119.294 12.7467 118.953 13.8667 118.953 15.36V24H113.961V14.912C113.961 12.2027 112.873 10.848 110.697 10.848C109.545 10.848 108.628 11.232 107.945 12C107.262 12.7467 106.921 13.8667 106.921 15.36V24H101.929V6.784H106.697V8.768C107.337 8.04267 108.116 7.488 109.033 7.104C109.972 6.72 110.996 6.528 112.105 6.528C113.321 6.528 114.42 6.77333 115.401 7.264C116.382 7.73333 117.172 8.42667 117.769 9.344C118.473 8.448 119.358 7.75467 120.425 7.264C121.513 6.77333 122.697 6.528 123.977 6.528Z" fill="#18CFAB"/>
</svg>
